:SAMPLES-PER-SECOND 30
:FULLY-SPECIFIED
:DEGREES
416
root  -69.2732 34.1924 21.7015 -161.099 61.0366 -173.003
RightUpLeg  -25.5973 -12.9127 0.0283384
RightLeg  15.8095 0.189104 0.0403518
RightFoot  9.5297 0.0213995 0.183322
RightToes  -32.362 -0.16052 -0.268043
Spine  0.495137 0.0523205 -0.892057
Spine1  0.935396 0.22506 -1.14881
HEad  -69.801 -15.9568 6.6206
LeftShoulder1  -1.94126e-019 -3.10601e-018 -2.51263e-017
LeftArm  -8.45668 8.51011 -73.0026
LeftForeArm  30.3531 -48.3399 -10.3336
LeftHand  -0.604087 -1.03117 11.0609
RightShoulder  -4.96962e-017 0 -2.36833e-017
RightArm  -5.60952 -24.7116 75.8872
RightForeArm  44.9304 48.7602 9.40652
RightHand  -0.296393 0.0433902 -6.3743
LeftUpLeg  -27.1049 9.13484 6.2034
LeftLeg  32.1993 10.4262 5.61095
LeftFoot  -1.61006 -0.00482665 -0.181972
LeftToes  -26.5785 2.32378e-006 -5.43956e-008
417
root  -68.9642 34.079 21.7452 -161.956 61.1674 -172.452
RightUpLeg  -25.3876 -12.41 0.127356
RightLeg  18.9043 -0.202378 -0.0566011
RightFoot  7.72515 0.0235343 0.132641
RightToes  -31.4239 -0.154466 -0.262264
Spine  0.573758 -0.0176055 -0.80331
Spine1  1.08201 0.10163 -0.985422
HEad  -68.3294 -14.8663 6.11298
LeftShoulder1  -1.94126e-019 -3.10601e-018 -2.51263e-017
LeftArm  -5.7044 10.206 -74.4662
LeftForeArm  33.4426 -50.3598 -10.9511
LeftHand  -0.67259 -1.95631 10.8134
RightShoulder  -4.96962e-017 0 -2.36833e-017
RightArm  -4.89734 -23.5566 75.6347
RightForeArm  48.0263 52.8871 10.9234
RightHand  -0.350553 -0.267176 -7.96109
LeftUpLeg  -25.8002 9.2389 7.02171
LeftLeg  33.2437 10.234 5.74944
LeftFoot  -2.49975 -0.0114143 -0.361623
LeftToes  -26.8351 2.32378e-006 -5.43956e-008
418
root  -68.6697 33.9626 21.7612 -162.952 61.4658 -171.99
RightUpLeg  -24.8567 -12.5736 0.259617
RightLeg  21.3695 0.152166 0.0456449
RightFoot  6.10831 0.0185154 0.181971
RightToes  -30.6578 -0.148477 -0.256512
Spine  0.719733 -0.129824 -0.539651
Spine1  1.36981 -0.119262 -0.462844
HEad  -66.9366 -13.7583 4.91825
LeftShoulder1  -1.94126e-019 -3.10601e-018 -2.51263e-017
LeftArm  -4.71662 11.2896 -76.8316
LeftForeArm  34.2528 -49.8078 -10.6468
LeftHand  -0.668595 -2.91783 9.56966
RightShoulder  -4.96962e-017 0 -2.36833e-017
RightArm  -4.25023 -21.5337 74.931
RightForeArm  49.4706 56.212 12.4806
RightHand  -0.343305 -0.574356 -8.26151
LeftUpLeg  -24.4294 9.71099 7.72311
LeftLeg  34.3407 9.86632 5.79461
LeftFoot  -3.26793 -0.0189114 -0.501414
LeftToes  -27.5594 2.32378e-006 -5.43956e-008
419
root  -68.372 33.8952 21.7256 -163.971 61.2251 -171.625
RightUpLeg  -23.7287 -13.6757 0.410417
RightLeg  22.7363 0.89529 0.305437
RightFoot  4.98629 0.0118344 0.250641
RightToes  -30.3736 -0.146502 -0.254554
Spine  0.648541 -0.0109919 -0.679605
Spine1  1.20591 0.149814 -0.770949
HEad  -65.1243 -13.8819 5.11221
LeftShoulder1  -1.94126e-019 -3.10601e-018 -2.51263e-017
LeftArm  -3.14816 12.0394 -78.3793
LeftForeArm  34.155 -47.7762 -9.82471
LeftHand  -0.585154 -3.70633 7.72701
RightShoulder  -4.96962e-017 0 -2.36833e-017
RightArm  -5.41374 -20.6314 75.6168
RightForeArm  50.0952 57.637 13.2315
RightHand  -0.349528 -0.526371 -8.33405
LeftUpLeg  -22.9391 9.38609 8.42788
LeftLeg  34.8964 9.7646 5.86249
LeftFoot  -3.83809 -0.0259368 -0.612543
LeftToes  -27.7912 2.32378e-006 -5.43956e-008
420
root  -68.0696 33.9108 21.7019 -165.045 61.1884 -171.379
RightUpLeg  -21.9806 -13.6198 0.324221
RightLeg  22.8509 0.774569 0.265409
RightFoot  4.45165 0.0119483 0.232675
RightToes  -30.0095 -0.145433 -0.253493
Spine  0.635197 -0.146467 -0.51535
Spine1  1.17619 -0.141444 -0.42115
HEad  -63.7498 -13.5838 4.12568
LeftShoulder1  -1.94126e-019 -3.10601e-018 -2.51263e-017
LeftArm  -4.20897 13.0754 -80.6336
LeftForeArm  35.2193 -44.194 -8.44505
LeftHand  -0.504984 -4.31387 6.3219
RightShoulder  -4.96962e-017 0 -2.36833e-017
RightArm  -5.22915 -18.9489 75.4475
RightForeArm  50.3637 58.4599 13.7155
RightHand  -0.347158 -0.753962 -8.65962
LeftUpLeg  -20.9178 9.47758 9.03633
LeftLeg  34.3448 9.55711 5.61664
LeftFoot  -3.90393 -0.0261527 -0.605811
LeftToes  -28.4705 2.32378e-006 -5.43956e-008
